<svg id="ic_symbol_apple_20" xmlns="http://www.w3.org/2000/svg" xmlns:xlink="http://www.w3.org/1999/xlink" width="20" height="20" viewBox="0 0 20 20">
  <defs>
    <clipPath id="clip-path">
      <rect id="사각형_3163" data-name="사각형 3163" width="6.429" height="7.902" fill="none"/>
    </clipPath>
  </defs>
  <rect id="영역" width="20" height="20" fill="none"/>
  <circle id="타원_397" data-name="타원 397" cx="9" cy="9" r="9" transform="translate(1 1)" fill="#040707"/>
  <g id="그룹_26986" data-name="그룹 26986" transform="translate(6.786 5.821)">
    <g id="그룹_26982" data-name="그룹 26982" transform="translate(0 0)" clip-path="url(#clip-path)">
      <path id="패스_37726" data-name="패스 37726" d="M5.37,5.422a1.794,1.794,0,0,1,.855-1.507,1.838,1.838,0,0,0-1.449-.783c-.609-.063-1.2.365-1.51.365s-.795-.358-1.31-.348a1.93,1.93,0,0,0-1.624.989c-.7,1.216-.178,3,.495,3.983.336.481.729,1.019,1.244,1S2.763,8.8,3.37,8.8s.778.321,1.3.309c.54-.009.881-.483,1.205-.969a3.924,3.924,0,0,0,.551-1.122,1.736,1.736,0,0,1-1.059-1.6" transform="translate(0 -1.219)" fill="#fff"/>
      <path id="패스_37727" data-name="패스 37727" d="M6.422,1.266A1.77,1.77,0,0,0,6.826,0,1.8,1.8,0,0,0,5.662.6a1.683,1.683,0,0,0-.415,1.22,1.487,1.487,0,0,0,1.175-.556" transform="translate(-2.043 0)" fill="#fff"/>
    </g>
  </g>
</svg>
