<svg id="ic_symbol_kakao_20" xmlns="http://www.w3.org/2000/svg" width="20" height="20" viewBox="0 0 20 20">
  <rect id="영역" width="20" height="20" fill="none"/>
  <circle id="타원_130" data-name="타원 130" cx="9" cy="9" r="9" transform="translate(1 1)" fill="#fee634"/>
  <path id="패스_37347" data-name="패스 37347" d="M13.049,10.711c-2.485,0-4.5,1.591-4.5,3.554a3.465,3.465,0,0,0,2.088,3l-.424,1.583a.133.133,0,0,0,.032.135.124.124,0,0,0,.17.008l1.823-1.231a5.7,5.7,0,0,0,.81.059c2.485,0,4.5-1.591,4.5-3.554s-2.016-3.554-4.5-3.554" transform="translate(-3.05 -4.711)" fill="#2b1718"/>
</svg>
